{
  "accessors": [
    {
      "bufferView": 2,
      "componentType": 5126,
      "count": 772,
      "max": [
        14.897953033447266,
        -14.444252014160156,
        14.89794921875
      ],
      "min": [
        -14.897937774658203,
        -14.813101768493652,
        -14.897933959960938
      ],
      "type": "VEC3"
    },
    {
      "bufferView": 2,
      "byteOffset": 9264,
      "componentType": 5126,
      "count": 772,
      "max": [
        0.9995064735412598,
        0.0,
        0.9995064735412598
      ],
      "min": [
        -0.9995064735412598,
        -1.0,
        -0.9995064735412598
      ],
      "type": "VEC3"
    },
    {
      "bufferView": 1,
      "componentType": 5126,
      "count": 772,
      "max": [
        0.7856428027153015,
        0.9757097363471985
      ],
      "min": [
        0.034397538751363754,
        0.6392701268196106
      ],
      "type": "VEC2"
    },
    {
      "bufferView": 0,
      "componentType": 5125,
      "count": 1200,
      "type": "SCALAR"
    },
    {
      "bufferView": 2,
      "byteOffset": 18528,
      "componentType": 5126,
      "count": 240,
      "max": [
        39.88841247558594,
        22.310142517089844,
        39.92106628417969
      ],
      "min": [
        -39.888397216796875,
        3.3250246047973633,
        -39.921051025390625
      ],
      "type": "VEC3"
    },
    {
      "bufferView": 2,
      "byteOffset": 21408,
      "componentType": 5126,
      "count": 240,
      "max": [
        1.0,
        1.1248300069155448e-07,
        0.9955661296844482
      ],
      "min": [
        -1.0,
        -2.7864845719705045e-07,
        -0.9955661296844482
      ],
      "type": "VEC3"
    },
    {
      "bufferView": 1,
      "byteOffset": 6176,
      "componentType": 5126,
      "count": 240,
      "max": [
        0.98828125,
        0.9415295720100403
      ],
      "min": [
        0.01171875,
        0.01171875
      ],
      "type": "VEC2"
    },
    {
      "bufferView": 0,
      "byteOffset": 4800,
      "componentType": 5125,
      "count": 540,
      "type": "SCALAR"
    },
    {
      "bufferView": 2,
      "byteOffset": 24288,
      "componentType": 5126,
      "count": 884,
      "max": [
        40.0,
        27.13091278076172,
        39.999996185302734
      ],
      "min": [
        -39.99998474121094,
        0.7234983444213867,
        -39.99998092651367
      ],
      "type": "VEC3"
    },
    {
      "bufferView": 2,
      "byteOffset": 34896,
      "componentType": 5126,
      "count": 884,
      "max": [
        1.0,
        1.0,
        1.0
      ],
      "min": [
        -1.0,
        -1.0,
        -1.0
      ],
      "type": "VEC3"
    },
    {
      "bufferView": 1,
      "byteOffset": 8096,
      "componentType": 5126,
      "count": 884,
      "max": [
        0.9113404154777527,
        0.98828125
      ],
      "min": [
        0.01171875,
        0.01171875
      ],
      "type": "VEC2"
    },
    {
      "bufferView": 0,
      "byteOffset": 6960,
      "componentType": 5125,
      "count": 2580,
      "type": "SCALAR"
    },
    {
      "bufferView": 2,
      "byteOffset": 45504,
      "componentType": 5126,
      "count": 509,
      "max": [
        38.89950942993164,
        27.189956665039063,
        38.899505615234375
      ],
      "min": [
        -38.89949417114258,
        27.13091278076172,
        -38.89949035644531
      ],
      "type": "VEC3"
    },
    {
      "bufferView": 2,
      "byteOffset": 51612,
      "componentType": 5126,
      "count": 509,
      "max": [
        1.0,
        1.0,
        1.0
      ],
      "min": [
        -1.0,
        -1.0,
        -1.0
      ],
      "type": "VEC3"
    },
    {
      "bufferView": 1,
      "byteOffset": 15168,
      "componentType": 5126,
      "count": 509,
      "max": [
        0.9382686018943787,
        0.7075713872909546
      ],
      "min": [
        0.14589156210422516,
        0.01171875
      ],
      "type": "VEC2"
    },
    {
      "bufferView": 0,
      "byteOffset": 17280,
      "componentType": 5125,
      "count": 1500,
      "type": "SCALAR"
    },
    {
      "bufferView": 2,
      "byteOffset": 57720,
      "componentType": 5126,
      "count": 905,
      "max": [
        39.652366638183594,
        0.8110580444335938,
        39.65236282348633
      ],
      "min": [
        -39.65235137939453,
        9.5367431640625e-07,
        -39.652347564697266
      ],
      "type": "VEC3"
    },
    {
      "bufferView": 2,
      "byteOffset": 68580,
      "componentType": 5126,
      "count": 905,
      "max": [
        1.0,
        1.0,
        1.0
      ],
      "min": [
        -1.0,
        0.0,
        -1.0
      ],
      "type": "VEC3"
    },
    {
      "bufferView": 1,
      "byteOffset": 19240,
      "componentType": 5126,
      "count": 905,
      "max": [
        0.9980818033218384,
        0.9984931945800781
      ],
      "min": [
        0.7499434947967529,
        0.2609837055206299
      ],
      "type": "VEC2"
    },
    {
      "bufferView": 0,
      "byteOffset": 23280,
      "componentType": 5125,
      "count": 2700,
      "type": "SCALAR"
    }
  ],
  "asset": {
    "extras": {
      "author": "BehNaM (https://sketchfab.com/GbehnamG)",
      "license": "SKETCHFAB Standard (https://sketchfab.com/licenses)",
      "source": "https://sketchfab.com/3d-models/art-gallery-for-product-showcase-vr-2021-caf3d480fc144ac2a9ab981a25bbbc70",
      "title": "Art Gallery for Product Showcase VR 2021"
    },
    "generator": "Sketchfab-12.66.0",
    "version": "2.0"
  },
  "bufferViews": [
    {
      "buffer": 0,
      "byteLength": 34080,
      "name": "floatBufferViews",
      "target": 34963
    },
    {
      "buffer": 0,
      "byteLength": 26480,
      "byteOffset": 34080,
      "byteStride": 8,
      "name": "floatBufferViews",
      "target": 34962
    },
    {
      "buffer": 0,
      "byteLength": 79440,
      "byteOffset": 60560,
      "byteStride": 12,
      "name": "floatBufferViews",
      "target": 34962
    }
  ],
  "buffers": [
    {
      "byteLength": 140000,
      "uri": "scene.bin"
    }
  ],
  "images": [
    {
      "uri": "textures/lambert13_metallicRoughness.png"
    },
    {
      "uri": "textures/lambert13_emissive.jpeg"
    },
    {
      "uri": "textures/lambert10_metallicRoughness.png"
    },
    {
      "uri": "textures/lambert10_emissive.jpeg"
    }
  ],
  "materials": [
    {
      "doubleSided": true,
      "emissiveFactor": [
        1.0,
        1.0,
        1.0
      ],
      "name": "lambert3",
      "pbrMetallicRoughness": {
        "baseColorFactor": [
          0.5,
          0.5,
          0.5,
          1.0
        ],
        "metallicFactor": 0.0
      }
    },
    {
      "emissiveFactor": [
        0.9,
        0.9,
        0.9
      ],
      "emissiveTexture": {
        "index": 1
      },
      "name": "lambert13",
      "occlusionTexture": {
        "index": 0
      },
      "pbrMetallicRoughness": {
        "metallicFactor": 0.0,
        "metallicRoughnessTexture": {
          "index": 0
        },
        "roughnessFactor": 0.6
      }
    },
    {
      "emissiveFactor": [
        0.4,
        0.4,
        0.4
      ],
      "emissiveTexture": {
        "index": 3
      },
      "name": "lambert10",
      "occlusionTexture": {
        "index": 2
      },
      "pbrMetallicRoughness": {
        "metallicFactor": 0.0,
        "metallicRoughnessTexture": {
          "index": 2
        },
        "roughnessFactor": 0.6
      }
    },
    {
      "doubleSided": true,
      "emissiveFactor": [
        0.3,
        0.3,
        0.3
      ],
      "emissiveTexture": {
        "index": 3
      },
      "name": "lambert11",
      "occlusionTexture": {
        "index": 2
      },
      "pbrMetallicRoughness": {
        "metallicFactor": 0.0,
        "metallicRoughnessTexture": {
          "index": 2
        },
        "roughnessFactor": 0.6
      }
    },
    {
      "doubleSided": true,
      "emissiveFactor": [
        0.2,
        0.2,
        0.2
      ],
      "emissiveTexture": {
        "index": 3
      },
      "name": "lambert9",
      "occlusionTexture": {
        "index": 2
      },
      "pbrMetallicRoughness": {
        "metallicFactor": 0.232304788275688,
        "metallicRoughnessTexture": {
          "index": 2
        },
        "roughnessFactor": 0.22623542762213925
      }
    }
  ],
  "meshes": [
    {
      "name": "polySurface3_lambert3_0",
      "primitives": [
        {
          "attributes": {
            "NORMAL": 1,
            "POSITION": 0,
            "TEXCOORD_0": 2
          },
          "indices": 3,
          "material": 0,
          "mode": 4
        }
      ]
    },
    {
      "name": "polySurface2_lambert13_0",
      "primitives": [
        {
          "attributes": {
            "NORMAL": 5,
            "POSITION": 4,
            "TEXCOORD_0": 6
          },
          "indices": 7,
          "material": 1,
          "mode": 4
        }
      ]
    },
    {
      "name": "polySurface10_lambert10_0",
      "primitives": [
        {
          "attributes": {
            "NORMAL": 9,
            "POSITION": 8,
            "TEXCOORD_0": 10
          },
          "indices": 11,
          "material": 2,
          "mode": 4
        }
      ]
    },
    {
      "name": "polySurface11_lambert11_0",
      "primitives": [
        {
          "attributes": {
            "NORMAL": 13,
            "POSITION": 12,
            "TEXCOORD_0": 14
          },
          "indices": 15,
          "material": 3,
          "mode": 4
        }
      ]
    },
    {
      "name": "polySurface13_lambert9_0",
      "primitives": [
        {
          "attributes": {
            "NORMAL": 17,
            "POSITION": 16,
            "TEXCOORD_0": 18
          },
          "indices": 19,
          "material": 4,
          "mode": 4
        }
      ]
    }
  ],
  "nodes": [
    {
      "children": [
        1
      ],
      "matrix": [
        1.0,
        0.0,
        0.0,
        0.0,
        0.0,
        2.220446049250313e-16,
        -1.0,
        0.0,
        0.0,
        1.0,
        2.220446049250313e-16,
        0.0,
        0.0,
        0.0,
        0.0,
        1.0
      ],
      "name": "Sketchfab_model"
    },
    {
      "children": [
        2
      ],
      "matrix": [
        0.009999999776482582,
        0.0,
        0.0,
        0.0,
        0.0,
        0.0,
        0.009999999776482582,
        0.0,
        0.0,
        -0.009999999776482582,
        0.0,
        0.0,
        0.0,
        0.0,
        0.0,
        1.0
      ],
      "name": "53ab1612e81e4980b1e56410d136a58d.fbx"
    },
    {
      "children": [
        3,
        7,
        9,
        14
      ],
      "name": "RootNode"
    },
    {
      "children": [
        4
      ],
      "matrix": [
        1.0,
        0.0,
        0.0,
        0.0,
        0.0,
        0.8897994756698608,
        0.0,
        0.0,
        0.0,
        0.0,
        1.0,
        0.0,
        0.0,
        13.18069076538086,
        0.0,
        1.0
      ],
      "name": "pCylinder1"
    },
    {
      "children": [
        5
      ],
      "name": "polySurface1"
    },
    {
      "children": [
        6
      ],
      "name": "polySurface3"
    },
    {
      "mesh": 0,
      "name": "polySurface3_lambert3_0"
    },
    {
      "children": [
        8
      ],
      "name": "polySurface2"
    },
    {
      "mesh": 1,
      "name": "polySurface2_lambert13_0"
    },
    {
      "children": [
        10,
        12
      ],
      "name": "polySurface9"
    },
    {
      "children": [
        11
      ],
      "name": "polySurface10"
    },
    {
      "mesh": 2,
      "name": "polySurface10_lambert10_0"
    },
    {
      "children": [
        13
      ],
      "name": "polySurface11"
    },
    {
      "mesh": 3,
      "name": "polySurface11_lambert11_0"
    },
    {
      "children": [
        15
      ],
      "name": "polySurface13"
    },
    {
      "mesh": 4,
      "name": "polySurface13_lambert9_0"
    }
  ],
  "samplers": [
    {
      "magFilter": 9729,
      "minFilter": 9987,
      "wrapS": 10497,
      "wrapT": 10497
    }
  ],
  "scene": 0,
  "scenes": [
    {
      "name": "Sketchfab_Scene",
      "nodes": [
        0
      ]
    }
  ],
  "textures": [
    {
      "sampler": 0,
      "source": 0
    },
    {
      "sampler": 0,
      "source": 1
    },
    {
      "sampler": 0,
      "source": 2
    },
    {
      "sampler": 0,
      "source": 3
    }
  ]
}
